<?xml version="1.0" encoding="utf-8"?>
<!-- Generator: Adobe Illustrator 23.0.1, SVG Export Plug-In . SVG Version: 6.00 Build 0)  -->
<svg version="1.1" id="Layer_1" xmlns="http://www.w3.org/2000/svg" xmlns:xlink="http://www.w3.org/1999/xlink" x="0px" y="0px"
	 viewBox="0 0 416.8 375.8" style="enable-background:new 0 0 416.8 375.8;" xml:space="preserve">
<style type="text/css">
	.st0{opacity:0.5;fill:url(#SVGID_1_);enable-background:new    ;}
	.st1{fill:#FFFFFF;}
	.st2{fill:#E94466;}
	.st3{fill:none;}
</style>
<title>splash_content</title>
<g id="OBJECTS">
	
		<radialGradient id="SVGID_1_" cx="-2408.8342" cy="1232.2466" r="231.57" gradientTransform="matrix(-1.09 0.19 0.2 0.99 -2663.7803 -559.48)" gradientUnits="userSpaceOnUse">
		<stop  offset="0" style="stop-color:#3EB3E4;stop-opacity:0"/>
		<stop  offset="0.22" style="stop-color:#3EB3E4;stop-opacity:1.000000e-02"/>
		<stop  offset="0.36" style="stop-color:#3DB3E4;stop-opacity:5.000000e-02"/>
		<stop  offset="0.48" style="stop-color:#3BB2E4;stop-opacity:0.12"/>
		<stop  offset="0.59" style="stop-color:#39B1E3;stop-opacity:0.21"/>
		<stop  offset="0.69" style="stop-color:#36B0E3;stop-opacity:0.33"/>
		<stop  offset="0.78" style="stop-color:#33AFE3;stop-opacity:0.48"/>
		<stop  offset="0.87" style="stop-color:#2FADE2;stop-opacity:0.65"/>
		<stop  offset="0.95" style="stop-color:#2AABE1;stop-opacity:0.85"/>
		<stop  offset="1" style="stop-color:#27AAE1"/>
	</radialGradient>
	<path class="st0" d="M386.4,219.4c-4.7-14.4-10.7-28.7-12.7-43.8c-4.5-35.8,4-73.3-10.3-107.8c-5.3-12.8-19.5-38.4-66.7-39.3
		c-18.3-0.4-36.8,3.1-54.7,1.3c-15.4-1.5-31-9.8-46.5-13c-35.7-7.4-72.3-4.6-105.9,9.2c-36.2,14.8-64.5,46.9-75.4,81.5
		c-5.1,16.3-7.9,37.3-1,53.5c8.7,20.3,21.3,37.7,26.2,60.2c4.3,19.9-1.3,35.3-3.2,54.6c-2.3,23,4.4,46.3,17.2,65.7
		c14.4,21.6,35,32,62,34.2c24.2,2,41.8-8.2,64.3-12.5c25.8-5,54.4-3.3,80.7-6c23.3-2.4,47.6-6.5,69.3-15.3
		c32.7-13.3,57.9-51.3,61.8-83.9C393.4,244.5,390.4,231.9,386.4,219.4z"/>
	<path class="st1" d="M48.8,80.8L45,77l3.8-3.8c0.3-0.3,0.3-0.8-0.1-1.1c-0.3-0.3-0.8-0.3-1.1,0l-3.8,3.8L40,72.1
		c-0.4-0.2-0.9-0.1-1.1,0.3c-0.2,0.3-0.2,0.6,0,0.9l3.8,3.8L39,80.8c-0.3,0.3-0.3,0.8,0,1.1c0.3,0.3,0.8,0.3,1.1,0l3.8-3.8l3.8,3.8
		c0.3,0.3,0.8,0.3,1.1-0.1C49.1,81.6,49.1,81.2,48.8,80.8L48.8,80.8z"/>
	<path class="st1" d="M155.3,349.5h-5.4v-5.4c0-0.4-0.4-0.8-0.8-0.8s-0.8,0.4-0.8,0.8v5.4h-5.4c-0.4,0-0.8,0.4-0.8,0.8
		s0.4,0.8,0.8,0.8h5.4v5.4c0,0.4,0.4,0.8,0.8,0.8s0.8-0.4,0.8-0.8v-5.4h5.4c0.4,0,0.8-0.4,0.8-0.8S155.8,349.5,155.3,349.5z"/>
	<path class="st1" d="M221.3,6.2h-5.4V0.8c0-0.4-0.4-0.8-0.8-0.8s-0.8,0.4-0.8,0.8v5.4h-5.4c-0.4,0-0.8,0.4-0.8,0.8s0.4,0.8,0.8,0.8
		l0,0h5.4v5.4c0,0.4,0.4,0.8,0.8,0.8s0.8-0.4,0.8-0.8V7.8h5.4c0.4,0,0.8-0.4,0.8-0.8S221.8,6.2,221.3,6.2L221.3,6.2z"/>
</g>
<g id="DESIGNED_BY_FREEPIK">
	<path class="st1" d="M197.8,48.8c-2.4-0.1-4.4-2.1-4.3-4.5c0.1-2.3,1.9-4.2,4.2-4.3c2.4-0.1,4.5,1.7,4.7,4.2
		c0.1,2.4-1.7,4.5-4.2,4.7C198.1,48.8,197.9,48.8,197.8,48.8z"/>
	<path class="st1" d="M208.4,62.2c17.2,0,31.1,14,31.1,31.2s-14,31.1-31.2,31.1s-31.1-14-31.1-31.2v-0.1
		C177.3,76,191.3,62.1,208.4,62.2z M208.3,71.1c-12.3,0-22.2,10-22.2,22.2c0,12.3,10,22.2,22.2,22.2c12.3,0,22.2-10,22.2-22.2l0,0
		l0,0C230.6,81,220.6,71.1,208.3,71.1L208.3,71.1z"/>
	<path class="st2" d="M231.6,154.4h25.3c3.2,0,4.9,1.7,4.9,4.8c0,3.7,0,7.4,0,11.1v1.9h48.1c3.6,0,5.3,1.7,5.3,5.2V247
		c0,3.6-1.7,5.2-5.3,5.2H107c-3.7,0-5.4-1.7-5.4-5.3v-87.3c0-3.5,1.7-5.2,5.1-5.2h52.1c3.4,0,5,1.7,5,5.1v12.6h34.9
		c-0.5-0.7-0.9-1.2-1.3-1.7C186,156,175.3,141.1,166.2,125c-4.2-7.4-7.9-15.1-9.9-23.3c-2.8-11.1-0.9-21.6,3.7-31.9
		c4-9,10.5-16.6,18.7-22c1.9-1.5,4.8-1.1,6.3,0.8c0.4,0.6,0.7,1.2,0.9,2c0.4,2-0.5,3.5-2.2,4.7c-6.6,4.4-11.9,10.6-15.3,17.8
		c-3.5,6.9-4.9,14.7-4.2,22.4c0.6,5.3,2.6,10.2,4.8,15c5.8,12.8,13.4,24.5,21.6,35.8c2.9,4,5.8,7.9,8.9,12.1
		c0.9-3.6,3.3-4.2,6.3-4.1c4.5,0.1,9,0.1,13.5,0c0.6,0,1.3-0.3,1.7-0.7c9.6-12.9,18.8-26.1,25.7-40.6c2.5-5.1,4.8-10.3,5.7-16
		c1.2-7.5,0.1-15.1-3.1-22c-6.6-15-18-24-34.2-26.9c-2.8-0.5-4.4-2.6-4.1-5.2s2.7-4,5.5-3.6c23.5,3.8,41.7,22.5,44.8,46.1
		c1.1,8.6-0.5,16.8-3.7,24.7c-4.5,11.1-10.6,21.3-17.2,31.3C237.6,145.7,234.6,149.9,231.6,154.4z M252.8,163.4h-44.3v79.8h44.3
		V163.4z M110.7,163.4v79.8H155v-79.9L110.7,163.4z M306.1,181.2c-0.6,0-1.1-0.1-1.6-0.1c-13.7,0-27.4,0-41.2,0
		c-1.3,0-1.7,0.4-1.7,1.7c0,19.6,0,39.3,0,58.9v1.6H306L306.1,181.2z M199.4,181.2H164v8.7h35.4V181.2z M199.4,199H164v8.7h35.3
		L199.4,199z M199.3,225.5v-8.7H164v8.7H199.3z M199.4,234.6H164v8.6h35.4V234.6z"/>
	<path class="st1" d="M226.2,230c0,2.5-2,4.5-4.5,4.4c-2.5,0-4.5-2-4.4-4.5c0-2.5,2-4.5,4.5-4.4l0,0l0,0
		C224.2,225.5,226.2,227.5,226.2,230z"/>
	<path class="st1" d="M244,229.9c0,2.5-1.9,4.5-4.4,4.5s-4.5-1.9-4.5-4.4s1.9-4.5,4.4-4.5l0,0C242,225.5,244,227.5,244,229.9z"/>
	<path class="st1" d="M226.2,212.2c0,2.5-2,4.4-4.5,4.4s-4.4-2-4.4-4.5s2-4.4,4.5-4.4l0,0l0,0C224.2,207.8,226.2,209.8,226.2,212.2z
		"/>
	<path class="st1" d="M235.1,212.1c0-2.5,2-4.4,4.5-4.4s4.4,2,4.4,4.5v0.1c-0.1,2.5-2.1,4.4-4.5,4.3S235,214.6,235.1,212.1
		L235.1,212.1z"/>
	<path class="st1" d="M226.2,194.5c0,2.5-2,4.4-4.5,4.4s-4.4-2-4.4-4.5s2-4.4,4.5-4.4l0,0h0.1C224.3,190,226.2,192.1,226.2,194.5z"
		/>
	<path class="st1" d="M244,194.3c0,2.5-1.9,4.5-4.4,4.5s-4.5-1.9-4.5-4.4s1.9-4.5,4.4-4.5h0.1C242,189.9,244,191.9,244,194.3
		L244,194.3L244,194.3L244,194.3z"/>
	<path class="st1" d="M221.8,172.2c2.5,0.1,4.4,2.1,4.3,4.5s-2.1,4.4-4.5,4.3c-2.5-0.1-4.4-2.1-4.3-4.5l0,0l0,0
		C217.3,174.1,219.3,172.2,221.8,172.2L221.8,172.2z"/>
	<path class="st1" d="M244,176.6c0,2.5-2,4.4-4.4,4.5s-4.4-2-4.5-4.4c0-2.5,2-4.4,4.4-4.5l0,0h0.1C242,172.2,244,174.1,244,176.6
		L244,176.6L244,176.6z"/>
	<path class="st1" d="M123.9,207.7c2.5,0,4.5,2,4.5,4.5s-2,4.5-4.5,4.5s-4.5-2-4.5-4.5l0,0l0,0v-0.1
		C119.5,209.7,121.5,207.7,123.9,207.7z"/>
	<path class="st1" d="M128.4,230c0,2.5-2,4.5-4.5,4.4c-2.5,0-4.5-2-4.4-4.5c0-2.5,2-4.5,4.5-4.4l0,0h0.1
		C126.4,225.6,128.4,227.6,128.4,230z"/>
	<path class="st1" d="M146.1,230c0.1,2.5-1.8,4.5-4.3,4.6s-4.5-1.8-4.6-4.3l0,0c0-0.1,0-0.2,0-0.3v-0.2c0.1-2.5,2.2-4.3,4.7-4.2
		C144.2,225.8,146.1,227.7,146.1,230L146.1,230z"/>
	<path class="st1" d="M146.1,212.2c0,2.5-2,4.4-4.5,4.4s-4.4-2-4.4-4.5s2-4.4,4.4-4.4l0,0l0,0C144.1,207.7,146.1,209.7,146.1,212.2z
		"/>
	<path class="st1" d="M123.9,190c2.5,0,4.4,2,4.4,4.5s-2,4.4-4.5,4.4s-4.4-2-4.4-4.5l0,0l0,0C119.4,192,121.4,190,123.9,190
		L123.9,190L123.9,190L123.9,190z"/>
	<path class="st1" d="M124,172.2c2.4,0,4.3,2,4.2,4.4c0,2.4-2,4.3-4.4,4.2c-2.4,0-4.3-2-4.2-4.4c0-2.3,1.9-4.2,4.2-4.2H124z"/>
	<path class="st1" d="M146.1,194.4c0,2.5-2,4.4-4.4,4.5c-2.5,0-4.4-2-4.5-4.4c0-2.5,2-4.4,4.4-4.5l0,0
		C144.1,189.9,146.1,191.9,146.1,194.4L146.1,194.4L146.1,194.4L146.1,194.4z"/>
	<path class="st1" d="M141.7,172.2c2.5,0,4.4,2,4.4,4.5s-2,4.4-4.5,4.4s-4.4-2-4.4-4.5l0,0l0,0C137.3,174.2,139.2,172.2,141.7,172.2
		C141.6,172.2,141.6,172.2,141.7,172.2L141.7,172.2L141.7,172.2z"/>
	<path class="st1" d="M292.9,225.5c2.5,0,4.5,2,4.5,4.5s-2,4.5-4.5,4.5s-4.5-2-4.5-4.4l0,0l0,0C288.4,227.5,290.4,225.5,292.9,225.5
		z"/>
	<path class="st1" d="M292.9,216.7c-2.5,0-4.5-2-4.5-4.5s2-4.5,4.5-4.5s4.5,2,4.5,4.5l0,0l0,0C297.3,214.7,295.3,216.6,292.9,216.7z
		"/>
	<path class="st1" d="M270.6,229.9c0-2.5,2.1-4.4,4.5-4.4c2.5,0,4.4,2.1,4.4,4.5c0,2.5-2.1,4.4-4.5,4.4l0,0l0,0
		C272.6,234.4,270.6,232.4,270.6,229.9C270.6,230,270.6,230,270.6,229.9z"/>
	<path class="st1" d="M275.1,207.7c2.5,0,4.5,2,4.5,4.4c0,2.5-2,4.5-4.4,4.5s-4.5-2-4.5-4.4l0,0l0,0v-0.1
		C270.7,209.7,272.7,207.7,275.1,207.7z"/>
	<path class="st1" d="M292.9,190c2.5,0,4.4,2,4.4,4.5s-2,4.4-4.5,4.4s-4.4-2-4.4-4.5l0,0l0,0C288.4,192,290.4,190,292.9,190z"/>
	<path class="st1" d="M275.1,190c2.5,0,4.4,2,4.4,4.5s-2,4.4-4.5,4.4s-4.4-2-4.4-4.5l0,0C270.7,192,272.7,190,275.1,190L275.1,190
		L275.1,190L275.1,190z"/>
</g>
<path class="st1" d="M378.5,165.7l-4.7-2.7l2.7-4.7c0.2-0.4,0.1-0.9-0.3-1.1c-0.4-0.2-0.9-0.1-1.1,0.3l-2.7,4.7l-4.7-2.7
	c-0.4-0.2-0.9-0.1-1.1,0.3c-0.2,0.4-0.1,0.9,0.3,1.1l0,0l4.7,2.7l-2.7,4.7c-0.2,0.4-0.1,0.9,0.3,1.1c0.4,0.2,0.9,0.1,1.1-0.3
	l2.7-4.7l4.7,2.7c0.4,0.2,0.9,0.1,1.1-0.3S378.9,166,378.5,165.7L378.5,165.7z"/>
<g>
	<path class="st2" d="M70,258.3c1.2,0,2.3,0.4,3.1,1.3c0.9,0.9,1.3,1.9,1.3,3.1c0,1.2-0.4,2.2-1.3,3.1c-0.9,0.9-1.9,1.3-3.1,1.3
		c-1.2,0-2.2-0.4-3.1-1.3c-0.9-0.9-1.3-1.9-1.3-3.1c0-1.2,0.4-2.3,1.3-3.1C67.8,258.7,68.8,258.3,70,258.3z M67.4,275.5h5.4v41.7
		h-5.4V275.5z"/>
	<path class="st2" d="M84.8,260.8h32.3v5.5H90.4V284h26.5v5.5H90.4v22.2h26.5v5.5H84.8V260.8z"/>
	<path class="st1" d="M121.2,275.5h6.4l11.1,15.3l11-15.3h6.5L142,295.2l16,22h-6.5l-12.7-17.5l-12.6,17.5h-6.4l15.8-22L121.2,275.5
		z"/>
	<path class="st1" d="M163.7,275.5h5.4v7.7c2.1-2.9,4.6-5.1,7.3-6.6c2.8-1.5,5.8-2.2,9.2-2.2c5.9,0,11,2.1,15.2,6.4
		c4.2,4.3,6.3,9.4,6.3,15.4c0,6.1-2.1,11.3-6.3,15.6c-4.2,4.3-9.2,6.4-15.1,6.4c-3.3,0-6.4-0.7-9.2-2.1c-2.8-1.4-5.3-3.4-7.5-6.2
		v22.4h-5.4V275.5z M185.2,279.6c-4.6,0-8.5,1.6-11.7,4.9c-3.2,3.2-4.8,7.3-4.8,12.1c0,3.2,0.7,6,2.1,8.5c1.4,2.5,3.4,4.5,6.1,6
		c2.6,1.5,5.4,2.2,8.4,2.2c2.9,0,5.6-0.7,8.1-2.2c2.5-1.5,4.6-3.6,6.1-6.3c1.5-2.7,2.3-5.5,2.3-8.4c0-3-0.7-5.8-2.2-8.4
		c-1.5-2.7-3.5-4.7-6-6.2C190.9,280.3,188.2,279.6,185.2,279.6z"/>
	<path class="st1" d="M216.4,259.4h5.4v57.8h-5.4V259.4z"/>
	<path class="st1" d="M252.7,274.4c6.4,0,11.8,2.3,16,7c3.8,4.2,5.8,9.3,5.8,15.1c0,5.8-2,10.9-6.1,15.3c-4.1,4.4-9.3,6.5-15.6,6.5
		c-6.4,0-11.6-2.2-15.7-6.5c-4.1-4.4-6.1-9.4-6.1-15.3c0-5.8,1.9-10.8,5.8-15C240.9,276.7,246.2,274.4,252.7,274.4z M252.6,279.6
		c-4.5,0-8.3,1.6-11.5,4.9c-3.2,3.3-4.8,7.3-4.8,12c0,3,0.7,5.8,2.2,8.4c1.5,2.6,3.4,4.6,5.9,6c2.5,1.4,5.2,2.1,8.2,2.1
		s5.7-0.7,8.2-2.1c2.5-1.4,4.5-3.4,5.9-6c1.5-2.6,2.2-5.4,2.2-8.4c0-4.7-1.6-8.7-4.8-12S257.1,279.6,252.6,279.6z"/>
	<path class="st1" d="M282.3,275.5h5.5v6.1c1.6-2.4,3.4-4.2,5.2-5.4c1.8-1.2,3.7-1.8,5.7-1.8c1.5,0,3.1,0.5,4.8,1.4l-2.8,4.5
		c-1.1-0.5-2.1-0.7-2.8-0.7c-1.8,0-3.5,0.7-5.2,2.2c-1.7,1.5-2.9,3.8-3.8,6.8c-0.7,2.4-1,7.2-1,14.4v14.1h-5.5V275.5z"/>
	<path class="st1" d="M343.1,303.3l4.5,2.4c-1.5,2.9-3.2,5.3-5.1,7.1c-1.9,1.8-4.1,3.1-6.6,4.1c-2.4,0.9-5.2,1.4-8.2,1.4
		c-6.8,0-12.1-2.2-16-6.7c-3.8-4.5-5.8-9.5-5.8-15.1c0-5.3,1.6-10,4.9-14.1c4.1-5.3,9.6-7.9,16.5-7.9c7.1,0,12.8,2.7,17,8.1
		c3,3.8,4.6,8.6,4.6,14.3h-37.5c0.1,4.8,1.7,8.8,4.6,11.9c3,3.1,6.7,4.6,11.1,4.6c2.1,0,4.2-0.4,6.2-1.1c2-0.7,3.7-1.7,5.1-2.9
		C339.9,308,341.4,306,343.1,303.3z M343.1,292.1c-0.7-2.9-1.8-5.1-3.1-6.9c-1.4-1.7-3.2-3.1-5.4-4.1c-2.3-1-4.6-1.6-7.1-1.6
		c-4.1,0-7.6,1.3-10.6,3.9c-2.1,1.9-3.8,4.8-4.9,8.6H343.1z"/>
</g>
<polygon class="st3" points="93,283 131,283 131,283 93,283 "/>
</svg>
